<svg width="220" height="91" viewBox="0 0 220 91" fill="none" xmlns="http://www.w3.org/2000/svg">
<path d="M48.2448 20.496V25.92H39.3168V54H32.5968V25.92H23.6688V20.496H48.2448ZM59.8679 20.496V54H53.1479V20.496H59.8679ZM103.035 20.496V54H96.3153V32.208L87.3393 54H82.2513L73.2273 32.208V54H66.5073V20.496H74.1393L84.7953 45.408L95.4513 20.496H103.035ZM116.399 25.92V34.32H127.679V39.648H116.399V48.528H129.119V54H109.679V20.448H129.119V25.92H116.399ZM204.408 21.936C205.688 19.504 206.984 17.632 208.296 16.32C209.608 15.008 210.696 14.352 211.56 14.352C212.296 14.352 212.664 14.736 212.664 15.504C212.664 16.848 212.12 18.32 211.032 19.92C209.944 21.488 208.456 23.072 206.568 24.672C204.68 26.272 202.536 27.808 200.136 29.28C197.736 30.72 195.224 32.016 192.6 33.168C189.976 34.32 187.368 35.232 184.776 35.904C182.184 36.544 179.768 36.864 177.528 36.864C174.04 36.864 171.032 36.448 168.504 35.616C166.008 34.752 164.072 33.552 162.696 32.016C161.352 30.448 160.68 28.592 160.68 26.448C160.68 24.816 161.128 23.312 162.024 21.936C162.92 20.528 164.168 19.28 165.768 18.192C167.368 17.104 169.208 16.256 171.288 15.648C173.368 15.04 175.592 14.736 177.96 14.736C180.744 14.736 183.56 15.072 186.408 15.744C189.256 16.416 191.976 17.344 194.568 18.528C197.192 19.712 199.576 21.088 201.72 22.656C203.896 24.192 205.704 25.856 207.144 27.648C208.584 29.44 209.544 31.28 210.024 33.168L209.784 33.264C209.272 31.408 208.296 29.6 206.856 27.84C205.416 26.048 203.624 24.384 201.48 22.848C199.368 21.312 197.016 19.968 194.424 18.816C191.832 17.664 189.128 16.768 186.312 16.128C183.528 15.456 180.744 15.12 177.96 15.12C175.592 15.12 173.384 15.408 171.336 15.984C169.288 16.56 167.496 17.36 165.96 18.384C164.424 19.376 163.224 20.56 162.36 21.936C161.496 23.312 161.064 24.8 161.064 26.4C161.064 29.6 162.504 32.08 165.384 33.84C168.296 35.6 172.344 36.48 177.528 36.48C179.704 36.48 182.056 36.16 184.584 35.52C187.144 34.848 189.72 33.952 192.312 32.832C194.936 31.712 197.432 30.448 199.8 29.04C202.2 27.6 204.328 26.096 206.184 24.528C208.072 22.928 209.56 21.376 210.648 19.872C211.736 18.336 212.28 16.912 212.28 15.6C212.28 15.056 212.072 14.784 211.656 14.784C210.92 14.784 209.96 15.376 208.776 16.56C207.592 17.712 206.344 19.504 205.032 21.936C203.688 24.464 202.456 27.04 201.336 29.664C200.216 32.256 199.08 34.816 197.928 37.344C196.808 39.872 195.624 42.288 194.376 44.592C193.128 46.896 191.736 49.024 190.2 50.976C188.696 52.928 186.968 54.624 185.016 56.064C183.096 57.536 180.872 58.672 178.344 59.472C175.848 60.272 172.984 60.672 169.752 60.672C166.616 60.672 163.688 60.208 160.968 59.28C158.248 58.352 155.848 57.056 153.768 55.392C151.72 53.728 150.12 51.792 148.968 49.584C147.816 47.376 147.24 44.992 147.24 42.432C147.24 39.968 147.816 37.648 148.968 35.472C150.12 33.296 151.704 31.392 153.72 29.76C155.768 28.096 158.12 26.8 160.776 25.872C163.464 24.944 166.328 24.48 169.368 24.48C172.728 24.48 175.704 25.04 178.296 26.16C180.888 27.28 182.92 28.816 184.392 30.768C185.896 32.688 186.648 34.896 186.648 37.392C186.648 39.312 186.184 41.088 185.256 42.72C184.328 44.352 183.048 45.808 181.416 47.088C179.816 48.336 177.928 49.312 175.752 50.016C173.576 50.72 171.24 51.072 168.744 51.072C166.216 51.072 164.024 50.688 162.168 49.92C160.312 49.152 158.872 48.08 157.848 46.704C156.824 45.328 156.312 43.728 156.312 41.904C156.312 40.016 156.872 38.336 157.992 36.864C159.112 35.36 160.616 34.176 162.504 33.312C164.424 32.416 166.584 31.968 168.984 31.968C171.544 31.968 173.624 32.496 175.224 33.552C176.856 34.608 177.672 35.984 177.672 37.68C177.672 38.864 177.288 39.936 176.52 40.896C175.752 41.824 174.712 42.576 173.4 43.152C172.12 43.696 170.648 43.968 168.984 43.968C168.088 43.968 167.352 43.792 166.776 43.44C166.232 43.088 165.96 42.624 165.96 42.048C165.96 41.248 166.6 40.624 167.88 40.176C169.16 39.696 170.84 39.456 172.92 39.456C176.312 39.456 179.288 40.032 181.848 41.184C184.408 42.304 186.408 43.856 187.848 45.84C189.32 47.824 190.056 50.112 190.056 52.704C190.056 54.72 189.48 56.576 188.328 58.272C187.208 60 185.64 61.504 183.624 62.784C181.64 64.096 179.32 65.12 176.664 65.856C174.008 66.592 171.128 66.96 168.024 66.96C163.832 66.96 159.976 66.384 156.456 65.232C152.936 64.08 149.88 62.464 147.288 60.384C144.728 58.336 142.744 55.888 141.336 53.04C139.928 50.16 139.224 47.024 139.224 43.632C139.224 40.432 139.896 37.376 141.24 34.464C142.584 31.552 144.488 28.928 146.952 26.592C149.416 24.224 152.328 22.304 155.688 20.832L155.88 21.12C152.616 22.56 149.752 24.448 147.288 26.784C144.856 29.12 142.984 31.744 141.672 34.656C140.328 37.536 139.656 40.56 139.656 43.728C139.656 47.056 140.36 50.128 141.768 52.944C143.144 55.728 145.096 58.128 147.624 60.144C150.152 62.192 153.144 63.776 156.6 64.896C160.056 66.016 163.864 66.576 168.024 66.576C171.064 66.576 173.896 66.224 176.52 65.52C179.144 64.816 181.432 63.824 183.384 62.544C185.368 61.296 186.904 59.824 187.992 58.128C189.112 56.464 189.672 54.656 189.672 52.704C189.672 50.176 188.952 47.952 187.512 46.032C186.104 44.08 184.136 42.56 181.608 41.472C179.112 40.384 176.232 39.84 172.968 39.84C170.92 39.84 169.304 40.048 168.12 40.464C166.936 40.848 166.344 41.376 166.344 42.048C166.344 42.464 166.584 42.832 167.064 43.152C167.576 43.44 168.216 43.584 168.984 43.584C170.584 43.584 171.992 43.328 173.208 42.816C174.456 42.304 175.448 41.6 176.184 40.704C176.92 39.776 177.288 38.752 177.288 37.632C177.288 36.064 176.504 34.8 174.936 33.84C173.4 32.848 171.416 32.352 168.984 32.352C166.68 32.352 164.584 32.768 162.696 33.6C160.84 34.432 159.368 35.584 158.28 37.056C157.224 38.496 156.696 40.112 156.696 41.904C156.696 43.664 157.192 45.216 158.184 46.56C159.176 47.872 160.568 48.896 162.36 49.632C164.184 50.336 166.312 50.688 168.744 50.688C171.144 50.688 173.4 50.352 175.512 49.68C177.656 48.976 179.528 48.016 181.128 46.8C182.728 45.584 183.976 44.176 184.872 42.576C185.8 40.976 186.264 39.248 186.264 37.392C186.264 34.992 185.528 32.848 184.056 30.96C182.616 29.072 180.616 27.584 178.056 26.496C175.528 25.408 172.632 24.864 169.368 24.864C166.36 24.864 163.544 25.328 160.92 26.256C158.296 27.152 155.992 28.4 154.008 30C152.024 31.6 150.456 33.472 149.304 35.616C148.184 37.728 147.624 40 147.624 42.432C147.624 44.544 148.136 46.512 149.16 48.336C150.216 50.16 151.656 51.76 153.48 53.136C155.304 54.512 157.416 55.584 159.816 56.352C162.248 57.152 164.856 57.552 167.64 57.552C170.36 57.552 172.872 57.2 175.176 56.496C177.48 55.824 179.624 54.864 181.608 53.616C183.592 52.368 185.448 50.88 187.176 49.152C188.904 47.392 190.52 45.472 192.024 43.392C193.56 41.312 195.016 39.104 196.392 36.768C197.8 34.4 199.16 31.968 200.472 29.472C201.784 26.976 203.096 24.464 204.408 21.936Z" fill="black"/>
</svg>
